<?xml version="1.0" standalone="no"?>
<!DOCTYPE svg PUBLIC "-//W3C//DTD SVG 20010904//EN"
 "http://www.w3.org/TR/2001/REC-SVG-20010904/DTD/svg10.dtd">
<svg version="1.0" xmlns="http://www.w3.org/2000/svg"
 width="500.000000pt" height="500.000000pt" viewBox="0 0 500.000000 500.000000"
 preserveAspectRatio="xMidYMid meet">

<g transform="translate(0.000000,500.000000) scale(0.100000,-0.100000)"
fill="#000000" stroke="none">
<path d="M745 4320 c-113 -23 -239 -99 -304 -184 -82 -107 -125 -235 -124
-371 0 -134 31 -230 103 -326 50 -67 105 -110 189 -151 36 -18 68 -33 70 -35
3 -2 -16 -45 -42 -96 -189 -378 -267 -776 -227 -1165 55 -536 325 -916 815
-1148 50 -23 108 -49 130 -57 22 -8 72 -26 110 -40 82 -29 157 -51 238 -67 32
-6 60 -17 63 -23 2 -7 10 -49 18 -94 17 -96 49 -166 89 -195 57 -41 183 -4
353 104 34 21 66 38 71 38 6 0 36 -12 67 -26 76 -34 142 -35 220 0 l58 26 97
-54 c94 -54 228 -106 271 -106 69 0 127 86 154 229 19 97 20 101 49 101 26 0
188 40 262 65 540 181 870 471 1009 890 85 254 100 647 36 954 -42 204 -137
461 -217 589 -18 29 -33 56 -33 60 1 4 40 30 87 57 142 83 243 214 272 353 14
68 14 196 0 264 -52 253 -291 433 -549 415 -222 -16 -388 -147 -450 -355 l-13
-42 -41 24 c-612 357 -1454 383 -2085 64 -73 -38 -136 -68 -140 -68 -4 0 -13
20 -20 45 -19 64 -78 152 -140 207 -116 105 -287 150 -446 118z m209 -116 c81
-21 158 -66 201 -118 44 -54 85 -146 85 -191 0 -32 -6 -38 -69 -80 -37 -25
-71 -45 -73 -45 -3 0 -17 18 -32 40 -74 112 -130 150 -223 150 -95 0 -159 -44
-151 -106 5 -46 31 -53 87 -21 56 31 82 34 117 10 29 -19 114 -134 114 -154
-1 -8 -37 -52 -80 -99 -44 -47 -104 -115 -133 -152 -42 -54 -58 -67 -80 -68
-71 -1 -200 106 -246 203 -86 182 -46 400 97 529 113 102 247 138 386 102z
m3268 -2 c153 -51 252 -151 290 -296 57 -218 -35 -427 -233 -527 -32 -16 -60
-29 -62 -29 -2 0 -36 42 -76 94 -39 51 -103 124 -142 160 l-71 67 34 56 c18
31 50 74 71 95 46 47 88 51 147 12 38 -25 41 -26 65 -10 71 47 -19 146 -132
146 -76 0 -190 -79 -233 -161 -13 -24 -29 -39 -41 -39 -4 0 -30 21 -59 47 -50
45 -52 48 -46 87 16 98 94 211 183 263 91 53 209 66 305 35z m-1427 -98 c418
-58 750 -216 1043 -499 178 -170 298 -334 412 -560 139 -276 194 -521 194
-865 0 -353 -51 -556 -192 -769 -130 -197 -326 -354 -588 -473 -139 -63 -463
-162 -479 -147 -3 3 -12 46 -20 95 -18 102 -48 169 -88 198 -72 53 -218 8
-370 -113 l-77 -61 -33 17 c-45 23 -179 29 -234 10 l-43 -15 -92 65 c-127 87
-190 116 -259 117 -32 1 -68 -5 -83 -14 -51 -27 -85 -110 -101 -242 -7 -54 -9
-58 -34 -58 -40 0 -203 46 -326 92 -412 153 -676 390 -810 728 -78 196 -98
315 -98 575 0 235 25 406 93 620 138 434 433 809 835 1062 211 133 545 232
850 253 144 10 362 2 500 -16z m-729 -3144 c44 -21 99 -56 123 -77 l43 -38 2
-122 1 -122 -77 -46 c-99 -59 -185 -97 -212 -93 -34 5 -55 91 -55 235 -1 123
19 263 40 289 19 23 52 16 135 -26z m958 21 c60 -66 59 -410 -2 -490 -28 -36
-58 -32 -177 29 -145 73 -139 66 -124 139 11 49 11 73 1 119 l-13 57 46 42
c50 46 194 123 230 123 12 0 29 -8 39 -19z m-467 -157 c44 -28 65 -73 60 -133
-3 -46 -9 -59 -36 -83 -27 -24 -40 -28 -92 -28 -105 0 -161 50 -161 142 1 42
6 56 29 80 15 16 41 33 58 38 39 12 112 4 142 -16z"/>
<path d="M1415 2533 c-49 -12 -88 -39 -117 -81 -27 -39 -32 -55 -32 -106 0
-77 21 -118 82 -157 53 -33 132 -40 181 -14 77 39 129 148 109 224 -14 52 -73
109 -132 126 -51 15 -57 16 -91 8z"/>
<path d="M3443 2530 c-44 -10 -76 -33 -110 -77 -25 -32 -28 -45 -28 -108 0
-63 3 -76 29 -109 43 -58 81 -76 154 -76 75 0 126 28 160 89 30 54 30 141 -1
195 -35 62 -133 104 -204 86z"/>
<path d="M2375 2194 c-143 -37 -205 -80 -205 -143 0 -47 72 -138 160 -201 117
-84 110 -71 66 -125 -58 -70 -124 -92 -184 -61 -36 19 -58 45 -66 81 -10 41
-24 55 -55 55 -106 0 -32 -183 95 -236 73 -31 130 -19 251 52 l31 18 46 -32
c84 -61 155 -75 238 -46 84 28 168 122 168 187 0 33 -32 59 -67 55 -24 -3 -29
-9 -37 -45 -18 -88 -111 -135 -191 -97 -49 23 -105 81 -105 110 0 16 17 36 59
68 57 44 129 122 164 178 60 96 -50 176 -253 184 -52 1 -104 1 -115 -2z"/>
</g>
</svg>
